<svg width="97" height="98" viewBox="0 0 97 98" fill="none" xmlns="http://www.w3.org/2000/svg">
<path d="M25.6441 82.528C25.5531 82.6222 25.4694 82.72 25.3933 82.8213C25.3243 82.9077 25.2554 82.9941 25.1864 83.0805C25.1135 83.1559 25.0368 83.2201 24.9561 83.2734C24.8755 83.3266 24.7815 83.3597 24.6742 83.3726C24.6079 83.396 24.539 83.3767 24.4676 83.3149C24.3922 83.2421 24.326 83.1598 24.2689 83.0681C24.1968 82.9692 24.1377 82.872 24.0916 82.7764C24.0417 82.6697 24.0125 82.5868 24.0041 82.5277L25.2748 81.0554L23.8801 76.7757C23.8516 76.6242 23.9206 76.5378 24.087 76.5165C24.2495 76.4841 24.4215 76.4609 24.6028 76.4467C24.625 76.4389 24.662 76.4383 24.714 76.4448C24.7732 76.4364 24.8157 76.4339 24.8417 76.4372C24.9247 76.7434 25.0119 77.0792 25.1032 77.4446C25.2017 77.7951 25.3022 78.151 25.4046 78.5125C25.5031 78.863 25.6052 79.206 25.7109 79.5415C25.8277 79.8731 25.9493 80.1657 26.0759 80.4193L28.3178 78.8474C28.3581 78.8208 28.403 78.8423 28.4523 78.9119C28.5088 78.9665 28.5657 79.0397 28.6228 79.1314C28.691 79.2192 28.7481 79.3109 28.7942 79.4065C28.8402 79.5021 28.8633 79.5499 28.8633 79.5499L26.4648 81.736C26.4998 81.8355 26.589 82.0712 26.7324 82.4431C26.8868 82.8112 27.0665 83.2511 27.2715 83.7628C27.4726 84.2635 27.6893 84.8084 27.9215 85.3975C28.1498 85.9756 28.3646 86.515 28.5657 87.0157C28.7668 87.5164 28.9409 87.9582 29.0882 88.3412C29.2316 88.7131 29.3207 88.9489 29.3558 89.0483C29.4504 89.3877 29.4093 89.5886 29.2324 89.6508C29.0666 89.7092 28.855 89.6905 28.5977 89.5947L25.6441 82.528ZM34.9155 86.7371C34.8018 86.5907 34.6164 86.3641 34.3593 86.057C34.1021 85.75 33.8128 85.4046 33.4913 85.0208C33.1699 84.637 32.8276 84.2295 32.4646 83.7982C32.1016 83.367 31.7594 82.9594 31.4379 82.5756C31.1164 82.1919 30.8271 81.8465 30.57 81.5394C30.3128 81.2324 30.1199 81.0021 29.9913 80.8486C29.89 80.7725 29.7903 80.6833 29.6922 80.5812C29.6013 80.4641 29.5345 80.3448 29.4916 80.2232C29.445 80.0905 29.4317 79.9648 29.452 79.8458C29.4722 79.7269 29.5354 79.6239 29.6414 79.5369C29.763 79.4941 29.8836 79.5013 30.0031 79.5586C30.1298 79.601 30.2348 79.6696 30.3179 79.7646L33.9466 83.9847C33.9031 83.826 33.8335 83.54 33.7376 83.1265C33.6379 82.7019 33.5303 82.2552 33.415 81.7865C33.2997 81.3177 33.1885 80.8785 33.0816 80.4689C32.9819 80.0443 32.9158 79.7508 32.8834 79.5883C32.8556 79.4738 32.8219 79.3428 32.7823 79.1952C32.7428 79.0476 32.7163 78.9017 32.7027 78.7574C32.7003 78.6092 32.7202 78.4717 32.7626 78.345C32.816 78.2143 32.92 78.1218 33.0748 78.0673C33.1853 78.0284 33.2666 78.0122 33.3186 78.0188C33.3817 78.0214 33.4658 78.0663 33.571 78.1535L38.669 82.4713L36.6962 76.867C37.0167 76.7542 37.267 76.7593 37.447 76.8823C37.6341 76.9903 37.7795 77.1565 37.8834 77.3809C37.9982 77.6014 38.0858 77.8501 38.146 78.127C38.2063 78.404 38.2789 78.6455 38.3639 78.8517C38.3911 78.9291 38.455 79.0929 38.5555 79.3433C38.6561 79.5936 38.7703 79.8826 38.8981 80.2104C39.0369 80.5342 39.1799 80.8876 39.3272 81.2706C39.4706 81.6425 39.6061 81.9924 39.7339 82.3201C39.8728 82.6439 39.9925 82.931 40.093 83.1814C40.1936 83.4317 40.2575 83.5956 40.2847 83.673C40.4399 83.8668 40.4869 84.018 40.4257 84.1265C40.3717 84.22 40.2689 84.2811 40.1174 84.3095C39.966 84.338 39.8009 84.3278 39.6221 84.2789C39.4434 84.23 39.3106 84.1525 39.2235 84.0465L33.8215 79.5003C34.3317 81.1967 34.7446 82.6167 35.0603 83.7604C35.3759 84.904 35.6348 85.8689 35.837 86.655C35.8466 86.7882 35.8147 86.874 35.7412 86.9123C35.6677 86.9506 35.5809 86.9687 35.4808 86.9667C35.3879 86.9497 35.2891 86.9162 35.1845 86.866C35.0799 86.8159 34.9902 86.7729 34.9155 86.7371ZM41.0854 81.0244C41.034 81.0549 40.957 81.1006 40.8542 81.1617C40.7515 81.2227 40.6374 81.2691 40.5119 81.3008C40.3864 81.3326 40.2697 81.3364 40.1618 81.3122C40.0429 81.292 39.9601 81.2155 39.9134 81.0829C39.8861 81.0055 39.8832 80.9444 39.9047 80.8996C39.9262 80.8547 39.964 80.7855 40.018 80.692C40.1911 80.4074 40.3061 80.0812 40.363 79.7133C40.427 79.3305 40.4686 78.9369 40.4878 78.5326C40.5031 78.1172 40.5258 77.7055 40.5561 77.2973C40.5935 76.8741 40.6666 76.4819 40.7754 76.1205C40.8843 75.7592 41.0623 75.4356 41.3096 75.1498C41.5568 74.864 41.909 74.6469 42.3661 74.4984C42.554 74.4322 42.7796 74.4025 43.0429 74.4092C43.3061 74.4159 43.5645 74.4616 43.8179 74.5463C44.0675 74.62 44.2956 74.7385 44.5021 74.9018C44.7087 75.0652 44.8568 75.2739 44.9463 75.5282C45.0327 75.5972 45.0221 75.7437 44.9147 75.9679C44.8183 76.1882 44.667 76.4465 44.4607 76.7427C44.2505 77.0279 44.0055 77.3378 43.7257 77.6723C43.4531 77.9919 43.1876 78.2966 42.9293 78.5863C42.671 78.876 42.4436 79.13 42.2471 79.3482C42.0506 79.5665 41.9254 79.7224 41.8713 79.8159C41.855 79.9459 41.8555 80.0886 41.8729 80.244C41.8904 80.3994 41.9114 80.5473 41.936 80.6877C41.9677 80.8132 41.9975 80.9331 42.0254 81.0476C42.0604 81.147 42.0876 81.2244 42.1071 81.2797C42.181 81.4897 42.2517 81.7257 42.3191 81.9878C42.3975 82.2459 42.4942 82.4852 42.6091 82.7056C42.7311 82.9111 42.8912 83.066 43.0894 83.1702C43.2837 83.2633 43.5521 83.2495 43.8948 83.1289C44.2596 83.0005 44.5711 82.7914 44.8294 82.5017C45.0838 82.2009 45.3025 81.8693 45.4855 81.5067C45.6684 81.1441 45.816 80.7692 45.9281 80.3818C46.0513 79.9906 46.1546 79.6312 46.2381 79.3037C46.3287 78.9612 46.4147 78.6762 46.4962 78.4488C46.5776 78.2213 46.6681 78.0901 46.7676 78.0551C46.8781 78.0161 47.0019 77.9974 47.1391 77.9988C47.2834 77.9853 47.3809 78.0504 47.4315 78.1941C47.5015 78.393 47.5023 78.6599 47.4337 78.9946C47.3763 79.3254 47.2694 79.6923 47.113 80.0952C46.9677 80.4942 46.7782 80.9087 46.5445 81.3389C46.318 81.7541 46.0762 82.1436 45.8191 82.5074C45.5582 82.8601 45.2891 83.1723 45.012 83.4438C44.7309 83.7042 44.4633 83.8792 44.2091 83.9687C43.7116 84.1438 43.293 84.1545 42.9532 84.0008C42.6133 83.8471 42.3239 83.6073 42.085 83.2815C41.8571 82.9517 41.6656 82.5843 41.5106 82.1792C41.3627 81.7591 41.221 81.3742 41.0854 81.0244ZM42.5603 75.4736C42.3724 75.5397 42.2065 75.7037 42.0627 75.9656C41.9149 76.2164 41.7937 76.5075 41.6992 76.8389C41.6119 77.1554 41.556 77.4733 41.5317 77.7924C41.5146 78.0966 41.5371 78.3371 41.5994 78.514C41.7652 78.4556 41.9814 78.3112 42.2481 78.0806C42.522 77.8351 42.7806 77.564 43.024 77.2671C43.2673 76.9702 43.4681 76.6759 43.6263 76.3842C43.7845 76.0924 43.8305 75.8526 43.7644 75.6647C43.7294 75.5652 43.6615 75.4959 43.5608 75.4568C43.46 75.4178 43.3466 75.3956 43.2205 75.3903C43.1055 75.3811 42.9888 75.3849 42.8705 75.4017C42.7521 75.4185 42.6488 75.4425 42.5603 75.4736ZM48.9281 78.2635C48.8767 78.294 48.7997 78.3398 48.6969 78.4008C48.5942 78.4618 48.48 78.5082 48.3546 78.54C48.2291 78.5717 48.1124 78.5755 48.0045 78.5514C47.8856 78.5312 47.8028 78.4547 47.7561 78.3221C47.7288 78.2447 47.7259 78.1836 47.7474 78.1387C47.7689 78.0939 47.8067 78.0247 47.8607 77.9311C48.0338 77.6466 48.1488 77.3203 48.2057 76.9525C48.2697 76.5696 48.3113 76.1761 48.3305 75.7718C48.3458 75.3564 48.3685 74.9446 48.3988 74.5364C48.4362 74.1133 48.5093 73.721 48.6181 73.3597C48.727 72.9984 48.905 72.6748 49.1523 72.389C49.3995 72.1032 49.7517 71.886 50.2088 71.7375C50.3967 71.6714 50.6223 71.6417 50.8856 71.6484C51.1488 71.6551 51.4072 71.7008 51.6606 71.7855C51.9102 71.8592 52.1383 71.9777 52.3448 72.141C52.5514 72.3043 52.6995 72.5131 52.789 72.7673C52.8754 72.8363 52.8648 72.9829 52.7574 73.2071C52.661 73.4273 52.5097 73.6856 52.3034 73.9819C52.0932 74.2671 51.8482 74.5769 51.5684 74.9115C51.2958 75.2311 51.0303 75.5357 50.772 75.8254C50.5137 76.1151 50.2863 76.3691 50.0898 76.5874C49.8933 76.8056 49.7681 76.9615 49.714 77.0551C49.6977 77.1851 49.6982 77.3278 49.7156 77.4832C49.7331 77.6385 49.7541 77.7864 49.7787 77.9269C49.8104 78.0523 49.8402 78.1723 49.8681 78.2867C49.9031 78.3862 49.9303 78.4636 49.9498 78.5189C50.0237 78.7289 50.0944 78.9649 50.1618 79.2269C50.2402 79.485 50.3369 79.7243 50.4518 79.9448C50.5738 80.1503 50.7339 80.3051 50.9321 80.4093C51.1264 80.5024 51.3948 80.4887 51.7375 80.368C52.1023 80.2396 52.4138 80.0306 52.6721 79.7409C52.9265 79.4401 53.1452 79.1084 53.3282 78.7459C53.5111 78.3833 53.6587 78.0083 53.7708 77.621C53.894 77.2298 53.9973 76.8704 54.0808 76.5428C54.1714 76.2003 54.2574 75.9154 54.3389 75.6879C54.4203 75.4605 54.5108 75.3292 54.6103 75.2942C54.7208 75.2553 54.8446 75.2366 54.9818 75.238C55.1261 75.2244 55.2236 75.2895 55.2742 75.4332C55.3442 75.6322 55.345 75.899 55.2764 76.2337C55.219 76.5646 55.1121 76.9314 54.9557 77.3343C54.8104 77.7333 54.6209 78.1479 54.3872 78.578C54.1607 78.9932 53.9189 79.3827 53.6618 79.7465C53.4009 80.0993 53.1318 80.4114 52.8547 80.6829C52.5736 80.9434 52.306 81.1183 52.0518 81.2078C51.5543 81.3829 51.1357 81.3936 50.7959 81.24C50.456 81.0863 50.1666 80.8465 49.9277 80.5206C49.6998 80.1909 49.5083 79.8234 49.3533 79.4183C49.2054 78.9983 49.0637 78.6134 48.9281 78.2635ZM50.403 72.7127C50.2151 72.7789 50.0492 72.9429 49.9053 73.2047C49.7576 73.4555 49.6364 73.7467 49.5419 74.0781C49.4546 74.3946 49.3987 74.7124 49.3744 75.0316C49.3573 75.3358 49.3798 75.5763 49.4421 75.7532C49.6079 75.6948 49.8241 75.5503 50.0908 75.3198C50.3647 75.0743 50.6233 74.8031 50.8667 74.5063C51.11 74.2094 51.3108 73.9151 51.469 73.6233C51.6272 73.3316 51.6732 73.0918 51.6071 72.9039C51.5721 72.8044 51.5042 72.7351 51.4035 72.696C51.3027 72.6569 51.1893 72.6347 51.0632 72.6294C50.9482 72.6202 50.8315 72.624 50.7132 72.6408C50.5948 72.6576 50.4915 72.6816 50.403 72.7127ZM55.5061 72.0158C55.415 72.11 55.3314 72.2078 55.2553 72.3091C55.1863 72.3955 55.1173 72.4819 55.0483 72.5683C54.9755 72.6437 54.8987 72.708 54.8181 72.7612C54.7374 72.8144 54.6435 72.8475 54.5362 72.8604C54.4699 72.8838 54.401 72.8645 54.3295 72.8027C54.2542 72.7299 54.1879 72.6476 54.1308 72.5559C54.0587 72.457 53.9997 72.3598 53.9536 72.2642C53.9036 72.1575 53.8744 72.0746 53.866 72.0155L55.1368 70.5432L53.742 66.2635C53.7135 66.112 53.7825 66.0256 53.9489 66.0043C54.1115 65.9719 54.2834 65.9487 54.4648 65.9345C54.4869 65.9267 54.524 65.9261 54.5759 65.9327C54.6351 65.9242 54.6777 65.9217 54.7037 65.925C54.7866 66.2312 54.8738 66.567 54.9652 66.9324C55.0637 67.2829 55.1641 67.6388 55.2666 68.0003C55.3651 68.3508 55.4672 68.6938 55.5729 69.0293C55.6896 69.3609 55.8112 69.6535 55.9378 69.9071L58.1798 68.3352C58.2201 68.3086 58.2649 68.3301 58.3143 68.3997C58.3708 68.4543 58.4276 68.5275 58.4847 68.6192C58.5529 68.707 58.61 68.7987 58.6561 68.8943C58.7022 68.9899 58.7252 69.0377 58.7252 69.0377L56.3268 71.2238C56.3618 71.3233 56.451 71.559 56.5943 71.9309C56.7487 72.299 56.9284 72.7389 57.1334 73.2506C57.3345 73.7513 57.5512 74.2962 57.7834 74.8853C58.0118 75.4634 58.2265 76.0028 58.4276 76.5035C58.6287 77.0042 58.8029 77.446 58.9501 77.829C59.0935 78.2009 59.1827 78.4367 59.2177 78.5361C59.3123 78.8755 59.2712 79.0764 59.0944 79.1386C58.9285 79.197 58.717 79.1783 58.4596 79.0825L55.5061 72.0158ZM70.3747 74.4968C69.7278 73.0473 69.0919 71.594 68.4671 70.1367C67.8495 68.6645 67.2013 67.1409 66.5227 65.566C66.4293 65.3007 66.5263 65.1175 66.8137 65.0163L66.9463 64.9696C66.9795 64.9579 67.0337 64.9885 67.1091 65.0614C67.1844 65.1343 67.287 65.2845 67.4168 65.5121C67.5538 65.7248 67.7356 66.0646 67.9621 66.5315C68.1957 66.9835 68.4929 67.5808 68.8537 68.3234C69.2146 69.066 69.6545 69.9982 70.1737 71.12C70.1412 70.2866 70.0667 69.4928 69.9504 68.7387C69.834 67.9846 69.7796 67.2831 69.7873 66.6344C69.7911 65.9746 69.903 65.3575 70.1232 64.783C70.3545 64.2047 70.7924 63.684 71.4369 63.2211C71.8582 63.1473 72.2644 63.2777 72.6554 63.6121C73.0426 63.9355 73.415 64.3759 73.7728 64.9332C74.1305 65.4906 74.4634 66.1188 74.7716 66.8179C75.0759 67.5058 75.3484 68.174 75.5891 68.8223C75.8297 69.4706 76.0415 70.0545 76.2243 70.574C76.4033 71.0825 76.5428 71.4434 76.6427 71.6566C76.6407 71.7568 76.6182 71.8516 76.5752 71.9413C76.5322 72.031 76.4724 72.108 76.3956 72.1723C76.326 72.2216 76.2506 72.2544 76.1693 72.2706C76.0842 72.2757 75.9909 72.2402 75.8896 72.164C75.8468 72.0425 75.7482 71.7976 75.5938 71.4296C75.4393 71.0615 75.258 70.6346 75.0497 70.1489C74.8376 69.6521 74.6102 69.1296 74.3675 68.5814C74.132 68.0183 73.9101 67.4938 73.7018 67.0081C73.5007 66.5074 73.323 66.073 73.1686 65.705C73.0142 65.3369 72.91 65.0941 72.8562 64.9764C72.4801 64.6491 72.1662 64.4987 71.9146 64.5251C71.6741 64.5477 71.4728 64.6993 71.3107 64.98C71.1597 65.2568 71.0511 65.6366 70.9851 66.1196C70.919 66.6025 70.8835 67.1368 70.8785 67.7225C70.8695 68.2971 70.8814 68.8955 70.9141 69.5176C70.9467 70.1397 70.9956 70.7374 71.0608 71.3108C71.1221 71.8732 71.1844 72.3855 71.2477 72.8477C71.3182 73.295 71.3833 73.6386 71.4429 73.8785C71.437 73.9675 71.3924 74.0702 71.3091 74.1865C71.2329 74.2878 71.1399 74.3765 71.03 74.4525C70.9311 74.5245 70.8189 74.5764 70.6934 74.6082C70.5751 74.625 70.4689 74.5879 70.3747 74.4968ZM77.1454 69.8025C76.889 69.3213 76.6772 68.843 76.5099 68.3677C76.3387 67.8813 76.1931 67.3797 76.0733 66.8628C75.9645 66.342 75.872 65.7969 75.7958 65.2274C75.7267 64.643 75.6606 64.014 75.5974 63.3405C75.5546 63.2189 75.5489 63.0967 75.5802 62.9739C75.6076 62.84 75.6649 62.7204 75.7521 62.6152C75.8354 62.4989 75.93 62.3972 76.0361 62.3102C76.1421 62.2232 76.2504 62.1602 76.3609 62.1213C76.6041 62.0357 76.8524 62.0353 77.1058 62.12C77.3593 62.2047 77.6023 62.3303 77.8349 62.4969C78.0785 62.6596 78.3003 62.8487 78.5004 63.064C78.7076 63.2644 78.881 63.4394 79.0206 63.589C79.2453 63.9447 79.4617 64.3655 79.67 64.8512C79.8854 65.3221 80.066 65.8175 80.2119 66.3377C80.3577 66.8578 80.4574 67.388 80.5109 67.9282C80.5605 68.4574 80.5468 68.9654 80.4697 69.4522C80.3926 69.939 80.2258 70.3829 79.9694 70.7838C79.724 71.1807 79.3753 71.496 78.9233 71.7297C78.6691 71.8192 78.4465 71.8044 78.2555 71.6853C78.0606 71.5551 77.8871 71.3801 77.7352 71.1603C77.5904 70.9255 77.4678 70.6829 77.3672 70.4326C77.2777 70.1783 77.2038 69.9683 77.1454 69.8025ZM77.9735 69.4551C78.0124 69.5656 78.0494 69.6706 78.0844 69.7701C78.1305 69.8657 78.1766 69.9613 78.2227 70.0569C78.2759 70.1375 78.333 70.2292 78.394 70.332C78.4622 70.4198 78.5418 70.5222 78.6327 70.6393L78.7322 70.6043C78.9975 70.5109 79.1929 70.3427 79.3186 70.0997C79.4442 69.8567 79.5248 69.5737 79.5601 69.2506C79.5916 68.9165 79.5912 68.5626 79.559 68.1888C79.5229 67.8039 79.4686 67.4379 79.3961 67.0907C79.3308 66.7286 79.253 66.4019 79.1629 66.1106C79.0799 65.8044 79.0073 65.5628 78.9451 65.386L78.8283 65.0544C78.7778 64.9107 78.7158 64.7523 78.6425 64.5793C78.5653 64.3953 78.477 64.2152 78.3777 64.0389C78.2856 63.8478 78.1846 63.6845 78.0749 63.5492C77.9612 63.4029 77.8427 63.2955 77.7192 63.2272C77.5958 63.1588 77.4622 63.1499 77.3185 63.2005C77.0481 63.2087 76.8439 63.2993 76.7059 63.4721C76.5791 63.641 76.507 63.8775 76.4899 64.1817C76.4799 64.471 76.5134 64.8133 76.5905 65.2085C76.6675 65.6038 76.7802 66.03 76.9287 66.4871C77.0772 66.9442 77.241 67.427 77.42 67.9355C77.61 68.4401 77.7945 68.9466 77.9735 69.4551ZM85.1552 69.0514C85.0415 68.905 84.8561 68.6783 84.599 68.3713C84.3418 68.0643 84.0525 67.7189 83.731 67.3351C83.4096 66.9513 83.0673 66.5438 82.7043 66.1125C82.3413 65.6812 81.9991 65.2737 81.6776 64.8899C81.3561 64.5061 81.0668 64.1607 80.8097 63.8537C80.5525 63.5467 80.3596 63.3164 80.231 63.1629C80.1297 63.0868 80.03 62.9976 79.9319 62.8955C79.841 62.7784 79.7741 62.6591 79.7313 62.5375C79.6846 62.4048 79.6714 62.279 79.6917 62.1601C79.7119 62.0412 79.7751 61.9382 79.8811 61.8512C80.0027 61.8084 80.1233 61.8156 80.2428 61.8729C80.3695 61.9153 80.4745 61.9839 80.5576 62.0789L84.1863 66.299C84.1428 66.1403 84.0732 65.8543 83.9773 65.4408C83.8776 65.0162 83.77 64.5695 83.6547 64.1008C83.5394 63.632 83.4282 63.1928 83.3213 62.7832C83.2215 62.3586 83.1555 62.0651 83.1231 61.9026C83.0953 61.7881 83.0616 61.6571 83.022 61.5095C82.9825 61.3619 82.956 61.216 82.9424 61.0717C82.9399 60.9234 82.9599 60.786 83.0022 60.6593C83.0557 60.5286 83.1597 60.4361 83.3145 60.3816C83.425 60.3427 83.5063 60.3265 83.5583 60.3331C83.6213 60.3357 83.7055 60.3806 83.8107 60.4678L88.9087 64.7856L86.9359 59.1813C87.2564 59.0685 87.5067 59.0736 87.6866 59.1966C87.8738 59.3046 88.0192 59.4708 88.1231 59.6952C88.2379 59.9156 88.3255 60.1644 88.3857 60.4413C88.4459 60.7183 88.5186 60.9598 88.6035 61.166C88.6308 61.2433 88.6947 61.4072 88.7952 61.6576C88.8958 61.9079 89.01 62.1969 89.1377 62.5247C89.2766 62.8485 89.4196 63.2019 89.5669 63.5849C89.7102 63.9568 89.8458 64.3067 89.9736 64.6344C90.1125 64.9582 90.2322 65.2453 90.3327 65.4957C90.4333 65.746 90.4972 65.9099 90.5244 65.9872C90.6796 66.1811 90.7266 66.3323 90.6654 66.4408C90.6114 66.5343 90.5086 66.5953 90.3571 66.6238C90.2057 66.6523 90.0406 66.6421 89.8618 66.5932C89.6831 66.5443 89.5502 66.4668 89.4632 66.3608L84.0612 61.8146C84.5714 63.511 84.9843 64.931 85.3 66.0747C85.6156 67.2183 85.8745 68.1832 86.0767 68.9693C86.0863 69.1025 86.0544 69.1883 85.9809 69.2266C85.9074 69.2649 85.8206 69.283 85.7205 69.281C85.6276 69.264 85.5288 69.2305 85.4242 69.1803C85.3196 69.1302 85.2299 69.0872 85.1552 69.0514ZM89.1016 59.0339C88.7436 58.017 88.4116 57.0033 88.1056 55.9929C87.7957 54.9714 87.4871 53.9184 87.1799 52.8339C87.1819 52.7338 87.2012 52.6649 87.2376 52.6272C87.2701 52.5785 87.3251 52.5405 87.4025 52.5133C87.513 52.4744 87.6021 52.4803 87.6696 52.5311C87.7333 52.5708 87.7843 52.6274 87.8226 52.7008C87.8719 52.7704 87.9086 52.8569 87.9326 52.9603C87.9637 53.0487 87.9909 53.1261 88.0143 53.1924L89.8004 58.2661C89.8704 58.4651 89.9609 58.6693 90.0719 58.8787L90.4049 59.5069C90.5269 59.7124 90.6285 59.9127 90.7096 60.1078C90.7978 60.2879 90.8432 60.4521 90.8457 60.6003C90.8664 60.7297 90.837 60.858 90.7576 60.9854C90.6892 61.1088 90.5943 61.192 90.4727 61.2348C90.2737 61.3048 90.1005 61.254 89.9531 61.0822C89.8057 60.9105 89.6742 60.6959 89.5587 60.4384C89.4543 60.177 89.3609 59.9117 89.2786 59.6425C89.2073 59.3694 89.1483 59.1666 89.1016 59.0339ZM92.8603 66.3762L92.7669 66.111C92.7475 66.0557 92.7335 65.9985 92.7251 65.9393C92.7128 65.8691 92.7155 65.806 92.7331 65.7502C92.7507 65.6943 92.7926 65.6546 92.859 65.6313C93.08 65.5535 93.2266 65.564 93.2987 65.6629C93.3779 65.7468 93.4428 65.8606 93.4934 66.0043C93.5479 66.159 93.5706 66.2939 93.5614 66.409C93.5632 66.5202 93.4536 66.6146 93.2325 66.6925C93.1662 66.7158 93.1087 66.7112 93.06 66.6787C93.0112 66.6461 92.9716 66.6042 92.9411 66.5528C92.9067 66.4904 92.8798 66.4315 92.8603 66.3762Z" fill="#193766"/>
<path d="M4.71974 7.66469C4.46546 7.77237 4.34661 8.06579 4.45429 8.32008C4.56196 8.57436 4.85539 8.69321 5.10967 8.58553L4.71974 7.66469ZM37.243 31.1117L36.763 31.2519L37.243 31.1117ZM28.5 24.0004L28.7499 24.4335L28.5 24.0004ZM52.2618 53.9396C52.5047 54.0712 52.8081 53.981 52.9396 53.7381L55.0829 49.7813C55.2144 49.5385 55.1242 49.2351 54.8814 49.1035C54.6386 48.972 54.3351 49.0622 54.2036 49.305L52.2985 52.8222L48.7813 50.9171C48.5385 50.7856 48.235 50.8758 48.1035 51.1186C47.972 51.3614 48.0622 51.6648 48.305 51.7964L52.2618 53.9396ZM4.91471 8.12511C5.10967 8.58553 5.10945 8.58563 5.10932 8.58568C5.10939 8.58565 5.10934 8.58567 5.10948 8.58561C5.10976 8.5855 5.11039 8.58523 5.11135 8.58483C5.11329 8.58402 5.11658 8.58265 5.12123 8.58075C5.13053 8.57693 5.14522 8.57096 5.16516 8.56302C5.20506 8.54716 5.26597 8.52346 5.34679 8.49351C5.50847 8.4336 5.74972 8.3487 6.06175 8.25139C6.68605 8.05668 7.59238 7.8127 8.71082 7.61945C10.9495 7.23263 14.0253 7.05122 17.3871 7.86434C24.0664 9.47984 32.0358 15.0632 36.763 31.2519L37.7229 30.9716C32.919 14.5201 24.7243 8.61013 17.6222 6.89237C14.0934 6.03886 10.8742 6.23082 8.54056 6.63405C7.37285 6.83581 6.42368 7.09101 5.76403 7.29673C5.43409 7.39963 5.17624 7.49026 4.99932 7.55582C4.91085 7.5886 4.84259 7.61513 4.79563 7.63381C4.77215 7.64314 4.754 7.65052 4.7413 7.65573C4.73496 7.65834 4.72997 7.6604 4.72638 7.66191C4.72458 7.66266 4.72312 7.66327 4.72202 7.66373C4.72146 7.66396 4.72089 7.6642 4.72062 7.66432C4.72013 7.66452 4.71974 7.66469 4.91471 8.12511ZM36.763 31.2519C37.2863 33.0439 37.323 34.325 37.0791 35.201C36.8429 36.0493 36.3382 36.5447 35.6662 36.7955C34.9683 37.0561 34.0506 37.0648 33.0125 36.8277C31.9811 36.5921 30.8714 36.1226 29.8191 35.4791C27.6963 34.181 25.9127 32.2438 25.4173 30.2519C25.1735 29.2717 25.2395 28.2764 25.7293 27.3087C26.2228 26.3336 27.1673 25.3466 28.7499 24.4335L28.2502 23.5673C26.5514 24.5474 25.4421 25.6617 24.8371 26.8571C24.2284 28.0597 24.1511 29.3039 24.4469 30.4932C25.0306 32.8403 27.0576 34.9625 29.2974 36.3322C30.4265 37.0226 31.6363 37.5391 32.7899 37.8026C33.9369 38.0646 35.0699 38.0855 36.0159 37.7324C36.9879 37.3696 37.7205 36.6255 38.0424 35.4693C38.3566 34.3409 38.2722 32.8526 37.7229 30.9716L36.763 31.2519ZM28.7499 24.4335C30.2761 23.553 31.7485 23.3353 33.1702 23.6057C34.6042 23.8785 36.0236 24.6555 37.4118 25.8275C40.1958 28.1779 42.7533 32.0299 44.9325 36.1704C47.106 40.3 48.8787 44.6684 50.1089 48.0087C50.7237 49.6779 51.2021 51.088 51.5267 52.0803C51.689 52.5763 51.8128 52.9678 51.8958 53.2348C51.9374 53.3683 51.9687 53.4707 51.9896 53.5395C52.0001 53.5739 52.0079 53.5999 52.0131 53.6171C52.0157 53.6258 52.0176 53.6322 52.0189 53.6365C52.0196 53.6386 52.02 53.6401 52.0203 53.6412C52.0205 53.6417 52.0206 53.642 52.0206 53.6422C52.0207 53.6424 52.0207 53.6425 52.5 53.5C52.9793 53.3575 52.9792 53.3573 52.9791 53.3569C52.979 53.3566 52.9788 53.3561 52.9786 53.3555C52.9783 53.3542 52.9777 53.3524 52.977 53.3501C52.9756 53.3453 52.9735 53.3384 52.9708 53.3293C52.9653 53.311 52.9572 53.2841 52.9464 53.2487C52.9249 53.1779 52.8929 53.0734 52.8507 52.9378C52.7663 52.6665 52.641 52.2703 52.4772 51.7693C52.1494 50.7674 51.6669 49.3455 51.0473 47.6631C49.8088 44.3004 48.019 39.8875 45.8174 35.7047C43.6217 31.5328 40.9917 27.5411 38.0569 25.0634C36.5858 23.8214 35.013 22.9384 33.3571 22.6234C31.689 22.306 29.974 22.5728 28.2502 23.5673L28.7499 24.4335Z" fill="#193766"/>
</svg>
